<?xml version="1.0" encoding="UTF-8" standalone="no"?>
<!-- Created with Inkscape (http://www.inkscape.org/) -->

<svg
   width="600"
   height="600"
   viewBox="0 0 158.75 158.75"
   version="1.1"
   id="svg5"
   inkscape:version="1.1.1 (3bf5ae0d25, 2021-09-20)"
   sodipodi:docname="splash.svg"
   xmlns:inkscape="http://www.inkscape.org/namespaces/inkscape"
   xmlns:sodipodi="http://sodipodi.sourceforge.net/DTD/sodipodi-0.dtd"
   xmlns:xlink="http://www.w3.org/1999/xlink"
   xmlns="http://www.w3.org/2000/svg"
   xmlns:svg="http://www.w3.org/2000/svg">
  <sodipodi:namedview
     id="namedview7"
     pagecolor="#505050"
     bordercolor="#eeeeee"
     borderopacity="1"
     inkscape:pageshadow="0"
     inkscape:pageopacity="0"
     inkscape:pagecheckerboard="0"
     inkscape:document-units="mm"
     showgrid="false"
     inkscape:zoom="0.77771465"
     inkscape:cx="-14.786914"
     inkscape:cy="729.70208"
     inkscape:window-width="2560"
     inkscape:window-height="1377"
     inkscape:window-x="1272"
     inkscape:window-y="-8"
     inkscape:window-maximized="1"
     inkscape:current-layer="layer1"
     units="px"
     width="700px" />
  <defs
     id="defs2">
    <inkscape:path-effect
       effect="bspline"
       id="path-effect12918"
       is_visible="true"
       lpeversion="1"
       weight="33.333333"
       steps="2"
       helper_size="0"
       apply_no_weight="true"
       apply_with_weight="true"
       only_selected="false" />
    <inkscape:path-effect
       effect="bspline"
       id="path-effect12524"
       is_visible="true"
       lpeversion="1"
       weight="33.333333"
       steps="2"
       helper_size="0"
       apply_no_weight="true"
       apply_with_weight="true"
       only_selected="false" />
    <inkscape:path-effect
       effect="bspline"
       id="path-effect11349"
       is_visible="true"
       lpeversion="1"
       weight="33.333333"
       steps="2"
       helper_size="0"
       apply_no_weight="true"
       apply_with_weight="true"
       only_selected="false" />
    <inkscape:path-effect
       effect="bspline"
       id="path-effect11345"
       is_visible="true"
       lpeversion="1"
       weight="33.333333"
       steps="2"
       helper_size="0"
       apply_no_weight="true"
       apply_with_weight="true"
       only_selected="false" />
    <inkscape:path-effect
       effect="bspline"
       id="path-effect11341"
       is_visible="true"
       lpeversion="1"
       weight="33.333333"
       steps="2"
       helper_size="0"
       apply_no_weight="true"
       apply_with_weight="true"
       only_selected="false" />
    <linearGradient
       inkscape:collect="always"
       id="linearGradient10918">
      <stop
         style="stop-color:#2a7fff;stop-opacity:1;"
         offset="0"
         id="stop10914" />
      <stop
         style="stop-color:#0000ff;stop-opacity:1"
         offset="1"
         id="stop10916" />
    </linearGradient>
    <inkscape:path-effect
       effect="bspline"
       id="path-effect388"
       is_visible="true"
       lpeversion="1"
       weight="33.333333"
       steps="2"
       helper_size="0"
       apply_no_weight="true"
       apply_with_weight="true"
       only_selected="false" />
    <linearGradient
       inkscape:collect="always"
       xlink:href="#linearGradient10918"
       id="linearGradient10920"
       x1="42.508087"
       y1="164.94437"
       x2="175.99651"
       y2="87.547462"
       gradientUnits="userSpaceOnUse"
       gradientTransform="translate(-29.597938,-44.907216)" />
  </defs>
  <g
     inkscape:label="Ebene 1"
     inkscape:groupmode="layer"
     id="layer1">
    <path
       style="fill:url(#linearGradient10920);fill-opacity:1;stroke:none;stroke-width:0.193;stroke-linecap:butt;stroke-linejoin:miter;stroke-miterlimit:4;stroke-dasharray:none;stroke-opacity:1"
       d="m 72.68582,31.173319 c -2.297028,1.823606 -5.805338,3.053046 -8.520115,2.008121 -2.714777,-1.044925 -4.635954,-4.364347 -6.912156,-6.741331 -2.276202,-2.376985 -4.907381,-3.811306 -7.325075,-3.925528 -2.417693,-0.114221 -4.557317,1.056626 -5.183788,2.962422 -0.626471,1.905795 0.292354,4.528553 3.06989,6.700513 2.777535,2.171959 7.413424,3.893142 9.689478,5.635904 2.276055,1.742763 2.19262,3.502947 1.628771,5.019192 -0.56385,1.516244 -1.607961,2.786633 -4.301788,3.565271 -2.693827,0.778637 -7.037367,1.065502 -11.621635,-0.7092 -4.584267,-1.774703 -9.44894,-5.642748 -14.314684,-7.691899 -4.865745,-2.049152 -9.752222,-2.295037 -12.383568,-0.573703 -2.631347,1.721334 -3.007229,5.409584 -2.171779,7.991419 0.83545,2.581834 2.881923,4.057134 5.993498,4.999642 3.111574,0.942507 7.288051,1.352312 11.757016,1.721146 4.468964,0.368833 9.230144,0.69668 11.965731,1.987722 2.735586,1.291042 3.445586,3.544972 3.132318,5.122633 -0.313269,1.577662 -1.649736,2.479235 -4.280917,2.17192 -2.631181,-0.307314 -6.557064,-1.823595 -9.752206,-2.274448 -3.195142,-0.450853 -5.659261,0.163854 -6.828757,1.188524 -1.169495,1.02467 -1.044201,2.458991 -0.125233,3.606433 0.918968,1.147443 2.631324,2.008033 5.241682,2.335818 2.610359,0.327786 6.118599,0.122887 8.123301,0.737741 2.004701,0.614854 2.505882,2.049182 1.48255,4.323571 -1.023332,2.274389 -3.570982,5.388909 -7.517768,6.638838 -3.946787,1.24993 -9.292677,0.635225 -13.093467,1.352401 -3.800791,0.717176 -6.05609,2.766204 -6.223072,5.389163 -0.166981,2.622959 1.7542,5.819447 4.928412,6.55696 3.174212,0.737513 7.601276,-0.983669 11.067898,-1.741794 3.466621,-0.758124 5.972508,-0.553222 7.329797,0.573882 1.35729,1.127104 1.566114,3.176134 0.163484,4.467558 -1.40263,1.291425 -4.402653,1.822924 -7.152637,2.939158 -2.749984,1.116234 -5.18559,2.776992 -4.730522,4.005452 0.455067,1.22846 3.846968,2.00915 7.250826,1.57879 3.403858,-0.43037 6.828572,-2.06959 8.89601,-2.37681 2.067438,-0.30722 2.777435,0.71729 2.505852,2.76633 -0.271582,2.04903 -1.524524,5.12258 -4.301934,8.05271 -2.777411,2.93014 -7.079183,5.71681 -11.339257,7.39706 -4.260075,1.68025 -8.478315,2.25398 -11.464672,3.99575 -2.986358,1.74178 -4.740478,4.6514 -4.510661,7.97101 0.229817,3.31962 2.443348,7.04885 5.178963,7.2741 2.735615,0.22525 5.993264,-3.05319 8.8184,-5.51125 2.825135,-2.45807 5.217623,-4.09563 7.765418,-5.73495 2.547795,-1.63931 5.250586,-3.28017 7.458171,-5.61691 2.207586,-2.33674 3.919939,-5.3693 5.882992,-7.54138 1.963054,-2.17207 4.176586,-3.48345 6.724401,-3.60632 2.547815,-0.12288 5.429582,0.94262 7.162786,2.29509 1.733204,1.35248 2.317908,2.99169 1.294569,6.00378 -1.02334,3.01209 -3.654521,7.39701 -5.450449,11.78211 -1.795928,4.38509 -2.756515,8.77001 -2.594987,12.01882 0.161528,3.24882 1.467504,5.39835 3.952593,6.03342 2.48509,0.63507 6.16038,-0.22552 8.854205,-1.63937 2.693824,-1.41386 4.406178,-3.38092 4.009476,-5.73729 -0.396702,-2.35636 -2.902586,-5.10205 -3.884176,-8.38062 -0.981591,-3.27857 -0.438648,-7.08976 0.542853,-10.38884 0.981502,-3.29908 2.4015,-6.08575 4.155721,-8.11439 1.754221,-2.02865 3.842463,-3.29905 5.575828,-3.40139 1.733365,-0.10235 3.111607,0.96315 4.093023,2.66393 0.981417,1.70078 1.566121,4.03667 1.691379,7.15127 0.125258,3.1146 -0.208858,7.00775 -0.542988,10.69611 -0.334129,3.68836 -0.668249,7.17171 -0.12521,10.1634 0.543038,2.9917 1.963038,5.49151 3.696351,6.61837 1.733312,1.12686 3.779782,0.88098 5.05354,-0.49184 1.273757,-1.37282 1.774938,-3.87263 2.547607,-6.53647 0.772668,-2.66384 1.816784,-5.4915 1.378333,-8.09378 -0.43845,-2.60229 -2.359632,-4.97916 -3.362091,-8.27822 -1.00246,-3.29905 -1.085988,-7.52005 -1.315674,-10.36825 -0.229687,-2.8482 -0.60557,-4.32351 0.459473,-5.88094 1.065043,-1.55744 3.570929,-3.19667 6.076972,-3.05311 2.506048,0.14355 5.011928,2.06963 6.682508,3.93434 1.67058,1.8647 2.50587,3.66785 3.6545,4.75377 1.14863,1.08593 2.6104,1.45475 4.09301,1.18832 1.48261,-0.26643 2.98614,-1.168 3.77965,-2.62276 0.79352,-1.45475 0.87705,-3.4628 -0.18789,-5.4709 -1.06494,-2.00811 -3.27848,-4.01616 -6.01414,-5.4096 -2.73567,-1.39344 -5.99332,-2.172068 -6.49461,-4.200686 -0.5013,-2.028618 1.754,-5.307072 4.3854,-6.393041 2.63139,-1.08597 5.63845,0.0205 7.97732,1.41394 2.33887,1.393437 4.00946,3.073639 5.98233,4.989362 1.97286,1.915723 4.29197,4.108535 6.23405,6.628945 1.94208,2.5204 3.52914,5.38904 5.93074,6.90524 2.40159,1.51621 5.61748,1.68013 8.13308,0.51927 2.51559,-1.16085 4.29196,-3.59296 4.18761,-6.42061 -0.10436,-2.82765 -2.10907,-6.024137 -4.7194,-8.052802 -2.61034,-2.028666 -5.82623,-2.88926 -9.41811,-4.487521 -3.59188,-1.598261 -7.55953,-3.934149 -11.402,-5.593943 -3.84248,-1.659794 -7.55954,-2.643332 -10.35787,-4.241556 -2.79834,-1.598224 -4.67776,-3.811178 -5.57581,-6.024205 -0.89805,-2.213026 -0.81452,-4.425977 1.27385,-6.393212 2.08837,-1.967235 6.18132,-3.68842 10.75477,-3.237518 4.57345,0.450902 9.62699,3.073662 14.34653,4.712879 4.71955,1.639217 9.10485,2.294904 11.69421,1.229406 2.58935,-1.065498 3.38288,-3.852168 2.40149,-6.167625 -0.98139,-2.315456 -3.73787,-4.159579 -7.87273,-5.348109 -4.13485,-1.18853 -9.6478,-1.72128 -14.01234,-2.172078 -4.36453,-0.450798 -7.58041,-0.819623 -11.13052,-1.434339 -3.55011,-0.614716 -7.43424,-1.475307 -8.62467,-2.930173 -1.19043,-1.454865 0.31311,-3.503899 2.71476,-4.671893 2.40165,-1.167995 5.70107,-1.454859 8.22784,-2.254013 2.52676,-0.799154 4.28088,-2.110533 4.71945,-3.626733 0.43857,-1.5162 -0.43849,-3.237389 -1.81672,-4.221046 -1.37824,-0.983656 -3.25765,-1.229538 -5.13715,-1.1476 -1.87951,0.08194 -3.75892,0.491743 -5.19993,1.434365 -1.44101,0.942623 -2.44337,2.417926 -3.94691,3.831759 -1.50354,1.413833 -3.508257,2.766198 -5.408536,2.561383 -1.900278,-0.204815 -3.696163,-1.966981 -3.550067,-4.159596 0.146097,-2.192614 2.234333,-4.815369 4.907433,-6.618591 2.6731,-1.803221 5.93075,-2.786754 9.94025,-5.040759 4.00951,-2.254006 8.77069,-5.778333 11.13043,-9.118237 2.35974,-3.339904 2.31798,-6.495407 0.68828,-8.417341 -1.62969,-1.921935 -4.92729,-2.627148 -7.8092,-2.483745 -2.88191,0.143403 -5.38779,1.126934 -7.18379,2.930207 -1.79601,1.803274 -2.88189,4.426033 -4.34369,6.659489 -1.46179,2.233456 -3.299436,4.07758 -5.22067,5.942249 -1.921235,1.86467 -3.925947,3.749778 -6.139509,5.286574 -2.213563,1.536795 -4.635921,2.725234 -6.160381,2.090129 -1.52446,-0.635104 -2.150935,-3.093943 -0.897961,-5.81935 1.252973,-2.725407 4.385329,-5.716987 5.68007,-8.913456 1.29474,-3.19647 0.751798,-6.597856 -0.772621,-7.950361 -1.524419,-1.3525056 -4.030309,-0.655834 -5.659256,0.717134 -1.628948,1.372967 -2.380715,3.421993 -3.11162,5.635019 -0.730904,2.213027 -1.440903,4.589899 -2.338874,6.987315 -0.897971,2.397415 -1.983859,4.815276 -4.280888,6.638883 z"
       id="path386"
       sodipodi:nodetypes="ccccccccccccccccccccccccccccccccccccccccccccccccccccccccccccccccccccccccccccccccccccccccccccccccccccccccccccccccccccccccccc"
       inkscape:original-d="m 73.896982,31.767527 c -3.508109,1.22963 -7.016419,2.45907 -10.524929,3.68832 -1.92106,-3.31937 -3.84224,-6.63879 -5.76365,-9.95847 -2.63109,-1.43419 -5.26227,-2.86851 -7.8937,-4.30305 -2.21342,1.188676 -4.34342,2.377111 -6.515429,3.56538 0.919059,2.62305 1.837879,5.24581 2.756529,7.86843 4.63627,1.72144 9.27216,3.44262 13.90794,5.16365 -0.1251,1.76243 -0.16686,3.52459 -0.25059,5.2866 -1.04397,1.27064 -2.08808,2.54103 -3.13242,3.81127 -4.34351,0.28706 -8.68705,0.57393 -13.030865,0.86061 -4.844712,-3.81116 -9.689423,-7.70431 -14.534426,-11.55675 -4.886478,-0.24571 -9.772955,-0.49159 -14.659724,-0.73767 -0.375702,3.68859 -0.751585,7.37684 -1.12767,11.06497 2.046749,1.47555 4.093223,2.95085 6.139542,4.42599 4.176837,0.41001 8.353313,0.81982 12.529677,1.22944 4.76157,0.32805 9.52275,0.6559 14.283836,0.98356 0.71022,2.254207 1.42022,4.508137 2.13004,6.761917 -1.33633,0.9018 -2.6728,1.80337 -4.00949,2.70478 -3.925854,-1.51616 -7.851741,-3.03243 -11.777901,-4.54894 -2.464025,0.61493 -4.928146,1.22963 -7.392511,1.84416 0.125495,1.43457 0.25079,2.86889 0.375891,4.30305 1.712618,0.86082 3.424973,1.72141 5.137168,2.58182 3.508574,-0.20471 7.016814,-0.40962 10.524929,-0.61471 0.501392,1.43456 1.00257,2.86889 1.503562,4.30304 -2.547558,3.11484 -5.095207,6.22936 -7.643103,9.34375 -5.345909,-0.61453 -10.691798,-1.22924 -16.037989,-1.84415 -2.255192,2.04929 -4.510489,4.09832 -6.766026,6.1472 1.921451,3.196804 3.84263,6.393294 5.763653,9.589644 4.427435,-1.72106 8.8545,-3.44224 13.281459,-5.16365 2.506179,0.2051 5.012065,0.41001 7.517806,0.61472 0.209026,2.0493 0.417851,4.09833 0.626483,6.14721 -3.006988,0.57394 -6.014051,1.0657 -9.021368,1.59827 -2.50579,1.68047 -4.928146,3.360662 -7.392509,5.040712 3.383275,0.73787 6.766219,1.55748 10.149039,2.33594 3.425041,-1.63909 6.849753,-3.27832 10.274335,-4.917772 0.710222,1.024752 1.420222,2.049262 2.130042,3.073612 -1.25279,3.07385 -2.505738,6.14739 -3.7589,9.22081 -4.301746,2.78698 -8.603517,5.57366 -12.905568,8.3602 -4.218215,0.57394 -8.436455,1.14767 -12.654975,1.72122 -1.753994,2.90993 -3.508115,5.81955 -5.262464,8.72903 2.213816,3.72957 4.427347,7.4588 6.640729,11.18792 3.257977,-3.27839 6.515628,-6.55683 9.773149,-9.83553 2.392767,-1.63731 4.785253,-3.27488 7.177601,-4.9128 2.703222,-1.6407 5.406015,-3.28156 8.108606,-4.92273 1.712622,-3.03249 3.424972,-6.06505 5.137172,-9.09787 2.21381,-1.31124 4.42734,-2.62262 6.64073,-3.93421 2.88207,1.06573 5.76384,2.13122 8.64547,3.19655 0.58493,1.63948 1.16963,3.27869 1.75416,4.91776 -2.63109,4.38529 -5.26227,8.77021 -7.8937,13.15502 -0.96043,4.38529 -1.92102,8.77021 -2.88182,13.15503 1.25318,2.13126 2.58966,4.26226 3.8842,6.39309 3.67564,-0.86043 7.35093,-1.72102 11.02611,-2.58182 1.712619,-1.96696 3.424969,-3.93403 5.137169,-5.90132 -2.50579,-2.74562 -5.011679,-5.49131 -7.517809,-8.23726 0.54316,-3.81115 1.0861,-7.62234 1.62886,-11.4338 1.42026,-2.78661 2.840259,-5.57328 4.260089,-8.3602 2.08851,-1.27027 4.17676,-2.54066 6.26484,-3.81128 1.37849,1.06573 2.75673,2.13123 4.1348,3.19655 0.58492,2.33618 1.16962,4.67207 1.75415,7.00782 -0.33394,3.8935 -0.66805,7.78665 -1.00237,11.67969 -0.33394,3.48368 -0.66806,6.96703 -1.00238,10.45025 1.42025,2.50011 2.84026,4.99992 4.260087,7.4996 2.04675,-0.24571 4.09322,-0.49159 6.13954,-0.73767 0.5014,-2.49972 1.00257,-4.99954 1.50357,-7.49959 1.04435,-2.82758 2.08847,-5.65524 3.13241,-8.48315 -1.92105,-2.37677 -3.84224,-4.75364 -5.76365,-7.13076 -0.0833,-4.22097 -0.16687,-8.44197 -0.25059,-12.66325 -0.3757,-1.47516 -0.75159,-2.95046 -1.12767,-4.42598 2.50618,-1.6391 5.01207,-3.27832 7.5178,-4.91777 2.506191,1.92635 5.012071,3.85244 7.517811,5.77837 0.83553,1.80341 1.67082,3.60656 2.50594,5.40955 1.46202,0.36903 2.92379,0.73785 4.38539,1.1065 1.50378,-0.90142 3.00731,-1.80299 4.51068,-2.70477 0.0837,-2.00794 0.16726,-4.01599 0.2506,-6.02427 -2.21343,-2.00793 -4.42697,-4.01598 -6.64074,-6.02426 -3.25758,-0.77847 -6.51523,-1.557102 -9.77315,-2.335942 2.25558,-3.27838 4.51089,-6.55683 6.76603,-9.83553 3.00738,1.10671 6.01444,2.21318 9.02137,3.31949 1.67085,1.68046 3.34144,3.36066 5.01187,5.04071 2.25559,2.17225 4.59441,4.344212 6.89132,6.516042 1.58732,2.86894 3.17438,5.73758 4.76128,8.60609 3.21621,0.16412 6.4321,0.32804 9.64785,0.49177 1.79616,-2.49971 3.59204,-4.91757 5.38776,-7.37664 -2.00459,-3.19642 -4.0093,-6.392912 -6.01424,-9.589642 -3.21582,-0.86044 -6.43171,-1.72103 -9.64785,-2.58183 -3.96762,-2.3358 -7.93527,-4.67169 -11.9032,-7.00781 -3.71702,-0.98339 -7.43408,-1.966924 -11.15141,-2.950674 -1.8793,-2.21284 -3.75871,-4.4258 -5.63835,-6.63898 0.0837,-2.21285 0.16725,-4.4258 0.25058,-6.63898 4.09331,-1.72107 8.18626,-3.44225 12.27909,-5.16366 5.05393,2.62305 10.10747,5.24581 15.16091,7.86843 4.38567,0.6559 8.77097,1.31159 13.15617,1.9671 0.79375,-2.7866 1.58728,-5.57327 2.38064,-8.3602 -2.75639,-1.84401 -5.51287,-3.68813 -8.2696,-5.53248 -5.51297,-0.53258 -11.02592,-1.06533 -16.53917,-1.59828 -3.21582,-0.36865 -6.4317,-0.73747 -9.64785,-1.1065 -3.88408,-0.86043 -7.76821,-1.72102 -11.6526,-2.58182 1.50378,-2.048917 3.00732,-4.097947 4.51068,-6.147207 3.29974,-0.28668 6.59916,-0.57355 9.89845,-0.86061 1.75438,-1.31124 3.5085,-2.62262 5.26246,-3.93421 -0.8769,-1.72106 -1.75396,-3.44225 -2.63123,-5.16366 -1.8793,-0.2457 -3.75871,-0.49158 -5.63835,-0.73766 -1.8793,0.41001 -3.75871,0.81982 -5.63836,1.22944 -1.0022,1.47555 -2.00456,2.95085 -3.00712,4.42599 -2.00459,1.3526 -4.009311,2.70496 -6.014251,4.05716 -1.79576,-1.76205 -3.59165,-3.52421 -5.38776,-5.2866 2.08852,-2.62267 4.17675,-5.24543 6.26484,-7.86843 3.257971,-0.98338 6.515621,-1.96691 9.773151,-2.95066 4.76157,-3.52427 9.52275,-7.0486 14.28383,-10.573193 -0.0415,-3.155438 -0.0833,-6.310941 -0.12529,-9.466699 -3.21582,-0.696506 -6.51525,-1.393175 -9.77315,-2.09005 -2.5058,0.983764 -5.01168,1.967297 -7.51781,2.950659 -1.08573,2.623052 -2.17162,5.245809 -3.25772,7.868425 -1.83753,1.844391 -3.675171,3.688518 -5.513051,5.532488 -2.0046,1.88537 -4.00931,3.77048 -6.01425,5.65543 -2.42226,1.18867 -4.844617,2.37711 -7.267207,3.56538 -0.62631,-2.45874 -1.25278,-4.91758 -1.87946,-7.37665 3.13268,-2.99151 6.265037,-5.983089 9.397257,-8.974921 -0.54277,-3.401332 -1.08571,-6.802719 -1.62886,-10.2043641 -2.505787,0.696888 -5.011677,1.3935581 -7.517797,2.0900501 -0.75161,2.049301 -1.50337,4.098329 -2.25535,6.147207 -0.70983,2.377159 -1.41983,4.754031 -2.13004,7.130758 -1.08573,2.41814 -2.17162,4.836 -3.25772,7.25371 z"
       inkscape:path-effect="#path-effect388" />
    <path
       style="fill:#009dff;fill-opacity:1;stroke:none;stroke-width:0.264583px;stroke-linecap:butt;stroke-linejoin:miter;stroke-opacity:1"
       d="m 17.974438,58.345512 c -2.097895,-0.737273 -5.443254,-0.62387 -7.626409,0.793761 -2.1831556,1.417631 -3.2037517,4.139222 -3.0618695,6.634176 0.1418821,2.494953 1.4459778,4.762945 4.0542695,5.414819 2.608291,0.651874 6.520584,-0.312023 8.476676,-2.097979 1.956092,-1.785955 1.956092,-4.280745 1.53091,-6.350324 -0.425183,-2.069579 -1.275682,-3.657179 -3.373577,-4.394453 z"
       id="path11339"
       inkscape:path-effect="#path-effect11341"
       inkscape:original-d="m 19.22165,57.494844 c -3.345098,0.11367 -6.690457,0.22707 -10.0360832,0.34021 -1.020374,2.72197 -2.040972,5.44356 -3.061855,8.16495 1.304414,2.26835 2.608512,4.53634 3.9123712,6.80412 3.912714,-0.96367 7.825006,-1.92757 11.737114,-2.89175 2.64e-4,-2.60804 2.64e-4,-5.10283 0,-7.65464 -0.850268,-1.5874 -1.700768,-3.175 -2.551547,-4.76289 z" />
    <path
       style="fill:#2a7fff;fill-opacity:1;stroke:none;stroke-width:0.197652px;stroke-linecap:butt;stroke-linejoin:miter;stroke-opacity:1"
       d="m 46.438815,136.26785 c 1.597522,-0.56888 3.566775,-2.21483 4.249237,-4.05903 0.682462,-1.8442 0.07803,-3.88633 -1.126716,-5.24922 -1.20475,-1.36288 -3.009507,-2.04644 -4.876929,-1.18742 -1.867422,0.85903 -3.797556,3.26035 -4.177694,5.20834 -0.380137,1.94799 0.738856,3.37783 1.92388,4.36303 1.185024,0.9852 2.410699,1.49317 4.008222,0.9243 z"
       id="path11339-3"
       inkscape:path-effect="#path-effect12918"
       inkscape:original-d="m 46.067232,137.3448 c 1.968994,-1.64596 3.938232,-3.29193 5.907767,-4.93786 -0.604736,-2.04225 -1.209158,-4.08438 -1.813328,-6.12654 -1.805109,-0.68362 -3.609869,-1.36717 -5.414384,-2.05072 -1.930489,2.40138 -3.860611,4.80271 -5.790505,7.20409 1.169634,1.49487 2.28863,2.9247 3.433363,4.3871 1.225441,0.50796 2.451115,1.01593 3.677087,1.52393 z" />
    <path
       style="fill:#2a57ff;fill-opacity:1;stroke:none;stroke-width:0.264583px;stroke-linecap:butt;stroke-linejoin:miter;stroke-opacity:1"
       d="m 68.891936,18.739802 c -1.701092,-0.312021 -3.742328,0.595194 -4.763009,2.012899 -1.020681,1.417705 -1.020681,3.345502 -0.113294,4.479422 0.907386,1.133919 2.721782,1.474118 4.422675,0.822014 1.700893,-0.652104 3.288493,-2.296403 3.402006,-3.883909 0.113513,-1.587507 -1.247286,-3.118405 -2.948378,-3.430426 z"
       id="path11343"
       inkscape:path-effect="#path-effect11345"
       inkscape:original-d="m 69.231958,17.520619 c -2.040972,0.907481 -4.082208,1.814697 -6.123712,2.721649 2.64e-4,1.928138 2.64e-4,3.855935 0,5.783504 1.814734,0.340479 3.62913,0.680677 5.443299,1.020619 1.587926,-1.644097 3.175527,-3.288395 4.762887,-4.932989 -1.36059,-1.530694 -2.72139,-3.061592 -4.082474,-4.592783 z" />
    <path
       style="fill:#0061ff;fill-opacity:1;stroke:none;stroke-width:0.264583px;stroke-linecap:butt;stroke-linejoin:miter;stroke-opacity:1"
       d="m 146.17546,77.226833 c -1.87124,0.226721 -3.85578,1.304042 -4.53619,2.891877 -0.6804,1.587835 -0.0567,3.685727 1.1625,5.046459 1.2192,1.360733 3.0336,1.984432 4.7912,1.530746 1.75759,-0.453686 3.45859,-1.984587 4.11068,-3.572071 0.65209,-1.587483 0.25518,-3.231783 -0.82203,-4.365908 -1.07722,-1.134125 -2.83491,-1.757824 -4.70616,-1.531103 z"
       id="path11347"
       inkscape:path-effect="#path-effect11349"
       inkscape:original-d="m 146.28866,76.376284 c -1.98427,1.07759 -3.96881,2.15491 -5.95361,3.23196 0.62399,2.09825 1.24769,4.19614 1.87113,6.293824 1.81474,0.62399 3.62914,1.24769 5.4433,1.87113 1.70133,-1.53069 3.40233,-3.061594 5.1031,-4.592784 -0.39665,-1.6441 -0.79355,-3.2884 -1.19073,-4.93299 -1.7575,-0.62346 -3.51519,-1.24716 -5.27319,-1.87114 z" />
    <path
       style="fill:#5b00ff;fill-opacity:1;stroke:none;stroke-width:0.264583px;stroke-linecap:butt;stroke-linejoin:miter;stroke-opacity:1"
       d="m 104.71055,118.39633 c -1.89376,-0.7705 -4.12064,-0.39629 -5.279955,0.8844 -1.159315,1.28069 -1.250946,3.46741 -0.839804,5.58706 0.411142,2.11966 1.32484,4.17205 4.161639,6.7351 2.8368,2.56305 7.59627,5.63663 9.07887,4.28742 1.48259,-1.3492 -0.31171,-7.12122 -1.98912,-10.96491 -1.67741,-3.84369 -3.23788,-5.75856 -5.13163,-6.52907 z"
       id="path11347-2"
       inkscape:path-effect="#path-effect12524"
       inkscape:original-d="m 105.04356,117.25163 c -2.22671,0.37456 -4.45359,0.74877 -6.680631,1.12264 -0.0915,2.18716 -0.1831,4.37388 -0.2749,6.56032 0.91392,2.05285 1.82762,4.10524 2.741201,6.15742 4.7599,3.07409 9.51937,6.14767 14.27895,9.2211 -1.79424,-5.77202 -3.58854,-11.54404 -5.3831,-17.31673 -1.56037,-1.91462 -3.12084,-3.82949 -4.68152,-5.74475 z"
       sodipodi:nodetypes="ccccccc" />
    <rect
       style="fill:#092eff;fill-opacity:1;stroke-width:0.1;paint-order:fill markers stroke"
       id="rect12943"
       width="5.2731957"
       height="6.2938142"
       x="22.700727"
       y="25.431217"
       transform="rotate(3.7970868)" />
    <path
       sodipodi:type="star"
       style="fill:#6662ff;fill-opacity:1;stroke-width:0.377953;paint-order:fill markers stroke"
       id="path14425"
       inkscape:flatsided="true"
       sodipodi:sides="3"
       sodipodi:cx="439.10706"
       sodipodi:cy="485.39655"
       sodipodi:r1="21.371296"
       sodipodi:r2="10.685648"
       sodipodi:arg1="0.80667155"
       sodipodi:arg2="1.8538691"
       inkscape:rounded="0"
       inkscape:randomized="0"
       d="m 453.89397,500.82637 -35.54299,-10.33889 26.72524,-25.61169 z"
       transform="matrix(0.13589864,-0.22701519,0.22701519,0.13589864,-47.222117,150.40997)"
       inkscape:transform-center-x="-0.83249804"
       inkscape:transform-center-y="0.62998078" />
    <path
       sodipodi:type="star"
       style="fill:#8400ff;fill-opacity:1;stroke-width:0.377953;paint-order:fill markers stroke"
       id="path14427"
       inkscape:flatsided="true"
       sodipodi:sides="3"
       sodipodi:cx="387.03143"
       sodipodi:cy="360.67212"
       sodipodi:r1="28.317219"
       sodipodi:r2="14.158609"
       sodipodi:arg1="1.525373"
       sodipodi:arg2="2.5725706"
       inkscape:rounded="0"
       inkscape:randomized="0"
       d="m 388.31725,388.96013 -26.42686,-41.31846 48.99627,-2.22711 z"
       transform="matrix(0.26458333,0,0,0.26458333,38.953608,-34.871134)"
       inkscape:transform-center-x="0.17010438"
       inkscape:transform-center-y="1.7238192" />
    <path
       sodipodi:type="star"
       style="fill:#0027fc;fill-opacity:1;stroke-width:0.377953;paint-order:fill markers stroke"
       id="path14429"
       inkscape:flatsided="true"
       sodipodi:sides="5"
       sodipodi:cx="327.88376"
       sodipodi:cy="434.60672"
       sodipodi:r1="17.154961"
       sodipodi:r2="8.5774803"
       sodipodi:arg1="0.22679885"
       sodipodi:arg2="0.85511738"
       inkscape:rounded="0"
       inkscape:randomized="0"
       d="m 344.5994,438.46418 -15.21888,13.23208 -17.28736,-10.38508 4.53472,-19.65042 20.08995,-1.75954 z"
       transform="matrix(0.26458333,0,0,0.26458333,-50.860825,-42.695876)"
       inkscape:transform-center-x="-0.6637282"
       inkscape:transform-center-y="-0.51031072" />
    <path
       sodipodi:type="star"
       style="fill:#007aff;fill-opacity:1;stroke-width:0.377953;paint-order:fill markers stroke"
       id="path14431"
       inkscape:flatsided="true"
       sodipodi:sides="5"
       sodipodi:cx="444.89325"
       sodipodi:cy="381.24524"
       sodipodi:r1="21.830536"
       sodipodi:r2="17.661274"
       sodipodi:arg1="1.3329604"
       sodipodi:arg2="1.9612789"
       inkscape:rounded="0"
       inkscape:randomized="0"
       d="m 450.03652,402.46125 -23.73153,-9.76836 1.95681,-25.58862 24.94091,-6.04628 13.45752,21.85181 z"
       transform="matrix(0.26458333,0,0,0.26458333,-14.798969,-85.391752)"
       inkscape:transform-center-x="-0.42051648"
       inkscape:transform-center-y="0.13609457" />
    <path
       sodipodi:type="star"
       style="fill:#8345ff;fill-opacity:1;stroke-width:0.377953;paint-order:fill markers stroke"
       id="path14433"
       inkscape:flatsided="true"
       sodipodi:sides="4"
       sodipodi:cx="354.88596"
       sodipodi:cy="567.04602"
       sodipodi:r1="19.297993"
       sodipodi:r2="15.612403"
       sodipodi:arg1="1.047518"
       sodipodi:arg2="1.8329162"
       inkscape:rounded="0"
       inkscape:randomized="0"
       d="m 364.5296,583.76166 -26.35929,-7.072 7.07201,-26.35928 26.35928,7.072 z"
       transform="matrix(0.26458333,0,0,0.26458333,-73.654639,-40.14433)"
       inkscape:transform-center-x="-0.16542857"
       inkscape:transform-center-y="-0.32755416" />
    <path
       sodipodi:type="star"
       style="fill:#0448ff;fill-opacity:1;stroke-width:0.377953;paint-order:fill markers stroke"
       id="path14433-7"
       inkscape:flatsided="true"
       sodipodi:sides="4"
       sodipodi:cx="354.88596"
       sodipodi:cy="567.04602"
       sodipodi:r1="19.297993"
       sodipodi:r2="15.612403"
       sodipodi:arg1="1.047518"
       sodipodi:arg2="1.8329162"
       inkscape:rounded="0"
       inkscape:randomized="0"
       transform="matrix(0.26458333,0,0,0.26458333,31.128865,-98.489687)"
       inkscape:transform-center-x="-0.16542857"
       inkscape:transform-center-y="-0.32755416"
       d="m 364.5296,583.76166 -26.35929,-7.072 7.07201,-26.35928 26.35928,7.072 z" />
    <path
       sodipodi:type="star"
       style="fill:#017cff;fill-opacity:1;stroke-width:0.377953;paint-order:fill markers stroke"
       id="path14435"
       inkscape:flatsided="true"
       sodipodi:sides="4"
       sodipodi:cx="423.03433"
       sodipodi:cy="522.04236"
       sodipodi:r1="23.001423"
       sodipodi:r2="16.264462"
       sodipodi:arg1="1.1071487"
       sodipodi:arg2="1.8925469"
       inkscape:rounded="0"
       inkscape:randomized="0"
       d="m 433.32088,542.61546 -30.85965,-10.28655 10.28655,-30.85965 30.85965,10.28655 z"
       transform="matrix(0.26458333,0,0,0.26458333,-1.3608242,-60.046391)"
       inkscape:transform-center-x="1.4101144e-06"
       inkscape:transform-center-y="-1.7401412e-06" />
    <path
       sodipodi:type="spiral"
       style="fill:none;fill-rule:evenodd;stroke:#0000ff;stroke-opacity:1"
       id="path14464"
       sodipodi:cx="459.03726"
       sodipodi:cy="431.39215"
       sodipodi:expansion="1"
       sodipodi:revolution="3"
       sodipodi:radius="17.909382"
       sodipodi:argument="-17.645933"
       sodipodi:t0="0.02"
       d="m 459.03375,431.75032 c -0.35718,0.91998 -1.56653,0.18349 -1.84703,-0.37634 -0.71431,-1.4256 0.52685,-2.95358 1.88336,-3.32475 2.27434,-0.62231 4.3979,1.21884 4.80248,3.39039 0.57699,3.0969 -1.91291,5.86201 -4.89742,6.28021 -3.91366,0.54839 -7.33438,-2.60717 -7.75793,-6.40446 -0.52742,-4.72848 3.30138,-8.811 7.91148,-9.23565 5.5425,-0.51053 10.29014,3.99555 10.71338,9.41851 0.49606,6.35611 -4.68968,11.77086 -10.92554,12.1911 -7.1695,0.48316 -13.25266,-5.38378 -13.66883,-12.43256 -0.4713,-7.98276 6.07788,-14.73523 13.9396,-15.14656 8.79593,-0.4602 16.21835,6.77197 16.62427,15.44663 0.33035,7.05941 -3.92752,13.68364 -10.34522,16.55096"
       transform="matrix(0.26458333,0,0,0.26458333,-45.587629,5.7835049)" />
    <path
       sodipodi:type="spiral"
       style="fill:none;fill-opacity:1;fill-rule:evenodd;stroke:#ff01f1;stroke-opacity:1"
       id="path14466"
       sodipodi:cx="300.23865"
       sodipodi:cy="350.38559"
       sodipodi:expansion="1"
       sodipodi:revolution="3"
       sodipodi:radius="17.54801"
       sodipodi:argument="-17.775183"
       sodipodi:t0="0.02"
       d="m 300.28046,350.73405 c -0.23086,0.939 -1.49893,0.37612 -1.84219,-0.13241 -0.8741,-1.29497 0.13891,-2.93638 1.41009,-3.46834 2.13127,-0.8919 4.42714,0.62888 5.0945,2.68777 0.95173,2.93623 -1.11837,5.9374 -3.96546,6.72065 -3.73345,1.02709 -7.4557,-1.607 -8.3468,-5.24314 -1.10962,-4.52782 2.09505,-8.97814 6.52082,-9.97295 5.32089,-1.19602 10.50301,2.58273 11.59911,7.7985 1.28471,6.11326 -3.07019,12.02941 -9.07619,13.22526 -6.90522,1.37489 -13.55686,-3.55749 -14.85141,-10.35387 -1.46608,-7.69692 4.04467,-15.08505 11.63155,-16.47756 8.48845,-1.55799 16.61378,4.53177 18.10372,12.90923 1.2125,6.81756 -2.08809,13.79171 -7.96173,17.38822"
       transform="matrix(0.26458333,0,0,0.26458333,-28.577319,-47.458763)" />
  </g>
</svg>
